<svg id="Layer_1" style="enable-background:new 0 0 512 512;" version="1.1" viewBox="0 0 512 512" xml:space="preserve" xmlns="http://www.w3.org/2000/svg" xmlns:xlink="http://www.w3.org/1999/xlink">
  <g>
    <path d="M276,222.4c-25.8-10.8-55.2-17-86.5-17C89,205.4,7.3,268.9,6,347.6h282.8L276,222.4z M45.4,307.5l-1.5-1.6l5.6-4.9l1.5,1.6   L45.4,307.5z M120,268.9l-1.5-1.6l5.6-4.9l1.5,1.6L120,268.9z M144.7,329.9l-1.5-1.6l5.6-4.9l1.5,1.6L144.7,329.9z M151.7,292.1   l-1.5-1.6l5.6-4.9l1.5,1.6L151.7,292.1z M170.2,240.9l-1.5-1.6l5.6-4.9l1.5,1.6L170.2,240.9z M217.4,278.2l5.6-4.9l1.5,1.6   l-5.6,4.9L217.4,278.2z M222.4,326.6l-1.5-1.6l5.6-4.9l1.5,1.6L222.4,326.6z M242.3,249.1l-1.5-1.6l5.6-4.9l1.5,1.6L242.3,249.1z    M270.7,281.5l5.6-4.9l1.5,1.6l-5.6,4.9L270.7,281.5z"/>
    <path d="M296.9,427.2c-2.5,1.5-5.3,2.8-8.4,4c-12.1,4.6-27.1,6.1-39.8,2.5c-27.5-7.8-35.9-35.7-69.6-35.1   c-12.1,0.2-23.4,4.3-33.2,9.1c-11.9,5.9-22.8,12.6-35.2,18.1c-16.4,7.2-37.9,11.8-55.5,5.9c-17.3-5.8-25.1-22.8-30.4-35.4H6v23.4   c0,30.6,15.4,55.5,34.3,55.5H305c-2.4-3.5-4-7.6-4.4-12.1L296.9,427.2z"/>
    <path d="M13.4,360.5c0,2.4,1.9,4.3,4.3,4.3h272.9l-0.9-8.6h-272C15.3,356.2,13.4,358.1,13.4,360.5z"/>
    <path d="M13.7,387.7h279.2l-1.6-15.4H13.7c-4.2,0-7.7,3.4-7.7,7.7C6,384.3,9.4,387.7,13.7,387.7z"/>
    <path d="M457,44.3h49v-7.4h-49c-12,0-22.4,7.7-25.9,19.2l-17.5,57.4H292.4c-8.7,0-15.5,7.5-14.6,16.2l34,332.3   c0.8,7.5,7.1,13.2,14.6,13.2h45.7h1.1h45.7c7.5,0,13.9-5.7,14.6-13.2l34-332.3c0.9-8.7-5.9-16.2-14.6-16.2h-31.4l16.9-55.2   C440.7,49.9,448.3,44.3,457,44.3z"/>
  </g>
</svg>
